<svg width="20" height="16" viewBox="0 0 20 16" fill="none" xmlns="http://www.w3.org/2000/svg">
<mask id="mask0_2616_211" style="mask-type:luminance" maskUnits="userSpaceOnUse" x="0" y="0" width="20" height="16">
<path d="M18.5714 0.857117H1.42857C0.639593 0.857117 0 1.49671 0 2.28569V13.7143C0 14.5032 0.639593 15.1428 1.42857 15.1428H18.5714C19.3604 15.1428 20 14.5032 20 13.7143V2.28569C20 1.49671 19.3604 0.857117 18.5714 0.857117Z" fill="white"/>
</mask>
<g mask="url(#mask0_2616_211)">
<path d="M18.5713 1.03571H1.42847C0.738111 1.03571 0.178467 1.59535 0.178467 2.28571V13.7143C0.178467 14.4046 0.738111 14.9643 1.42847 14.9643H18.5713C19.2617 14.9643 19.8213 14.4046 19.8213 13.7143V2.28571C19.8213 1.59535 19.2617 1.03571 18.5713 1.03571Z" fill="white" stroke="#F5F5F5" stroke-width="14.2857"/>
<mask id="mask1_2616_211" style="mask-type:alpha" maskUnits="userSpaceOnUse" x="-7" y="-7" width="34" height="30">
<path d="M18.5713 1.03571H1.42847C0.738111 1.03571 0.178467 1.59535 0.178467 2.28571V13.7143C0.178467 14.4046 0.738111 14.9643 1.42847 14.9643H18.5713C19.2617 14.9643 19.8213 14.4046 19.8213 13.7143V2.28571C19.8213 1.59535 19.2617 1.03571 18.5713 1.03571Z" fill="white" stroke="white" stroke-width="14.2857"/>
</mask>
<g mask="url(#mask1_2616_211)">
<path fill-rule="evenodd" clip-rule="evenodd" d="M0 6.5714H8.57143V0.857117H0V6.5714Z" fill="#083D7A"/>
<path fill-rule="evenodd" clip-rule="evenodd" d="M11.4285 15.1428H19.9999V9.42853H11.4285V15.1428Z" fill="#083D7A"/>
<path fill-rule="evenodd" clip-rule="evenodd" d="M0 15.1428H8.57143V9.42853H0V15.1428Z" fill="#DF1E35"/>
<path fill-rule="evenodd" clip-rule="evenodd" d="M11.4285 6.5714H19.9999V0.857117H11.4285V6.5714Z" fill="#DF1E35"/>
<mask id="mask2_2616_211" style="mask-type:luminance" maskUnits="userSpaceOnUse" x="8" y="6" width="4" height="4">
<path fill-rule="evenodd" clip-rule="evenodd" d="M8.98993 6.98981C8.43207 7.5477 8.43207 8.45224 8.98993 9.0101C9.54785 9.56803 10.4524 9.56803 11.0103 9.0101C11.5681 8.45224 11.5681 7.5477 11.0103 6.98981" fill="white"/>
</mask>
<g mask="url(#mask2_2616_211)">
<path d="M8.65311 6.65308C7.90925 7.39693 7.90925 8.60295 8.65311 9.3468L9.32654 8.67338C8.95461 8.30145 8.95461 7.69844 9.32654 7.32651L8.65311 6.65308ZM8.65311 9.3468C9.39696 10.0907 10.603 10.0907 11.3469 9.3468L10.6735 8.67338C10.3015 9.0453 9.69847 9.0453 9.32654 8.67338L8.65311 9.3468ZM11.3469 9.3468C12.0908 8.60295 12.0908 7.39693 11.3469 6.65308L10.6735 7.32651C11.0454 7.69844 11.0454 8.30145 10.6735 8.67338L11.3469 9.3468Z" fill="#0F6D1A"/>
</g>
<path fill-rule="evenodd" clip-rule="evenodd" d="M10.0001 8.4762C10.2631 8.4762 10.4763 8.26299 10.4763 7.99999C10.4763 7.737 10.2631 7.5238 10.0001 7.5238C9.73714 7.5238 9.52393 7.737 9.52393 7.99999C9.52393 8.26299 9.73714 8.4762 10.0001 8.4762Z" fill="#042F60"/>
</g>
</g>
</svg>
