<svg width="20" height="16" viewBox="0 0 20 16" fill="none" xmlns="http://www.w3.org/2000/svg">
<mask id="mask0_2616_262" style="mask-type:luminance" maskUnits="userSpaceOnUse" x="0" y="0" width="20" height="16">
<path d="M18.5714 0.857147H1.42857C0.639593 0.857147 0 1.49674 0 2.28572V13.7143C0 14.5033 0.639593 15.1429 1.42857 15.1429H18.5714C19.3604 15.1429 20 14.5033 20 13.7143V2.28572C20 1.49674 19.3604 0.857147 18.5714 0.857147Z" fill="white"/>
</mask>
<g mask="url(#mask0_2616_262)">
<path d="M20 0.857147H0V15.1429H20V0.857147Z" fill="url(#paint0_linear_2616_262)"/>
<path d="M19.9999 0.857147H9.52368V15.1429H19.9999V0.857147Z" fill="url(#paint1_linear_2616_262)"/>
<path d="M6.66666 0.857147H0V15.1429H6.66666V0.857147Z" fill="url(#paint2_linear_2616_262)"/>
<path d="M13.3334 0.857147H6.66675V15.1429H13.3334V0.857147Z" fill="url(#paint3_linear_2616_262)"/>
</g>
<defs>
<linearGradient id="paint0_linear_2616_262" x1="10" y1="0.857147" x2="10" y2="15.1429" gradientUnits="userSpaceOnUse">
<stop stop-color="white"/>
<stop offset="1" stop-color="#F0F0F0"/>
</linearGradient>
<linearGradient id="paint1_linear_2616_262" x1="14.7618" y1="0.857147" x2="14.7618" y2="15.1429" gradientUnits="userSpaceOnUse">
<stop stop-color="#F44653"/>
<stop offset="1" stop-color="#EE2A39"/>
</linearGradient>
<linearGradient id="paint2_linear_2616_262" x1="3.33334" y1="0.857147" x2="3.33334" y2="15.1429" gradientUnits="userSpaceOnUse">
<stop stop-color="#1035BB"/>
<stop offset="1" stop-color="#042396"/>
</linearGradient>
<linearGradient id="paint3_linear_2616_262" x1="10.0001" y1="0.857147" x2="10.0001" y2="15.1429" gradientUnits="userSpaceOnUse">
<stop stop-color="white"/>
<stop offset="1" stop-color="#F0F0F0"/>
</linearGradient>
</defs>
</svg>
