<svg width="20" height="16" viewBox="0 0 20 16" fill="none" xmlns="http://www.w3.org/2000/svg">
<mask id="mask0_2616_247" style="mask-type:luminance" maskUnits="userSpaceOnUse" x="0" y="0" width="20" height="16">
<path d="M18.5714 0.857117H1.42857C0.639593 0.857117 0 1.49671 0 2.28569V13.7143C0 14.5032 0.639593 15.1428 1.42857 15.1428H18.5714C19.3604 15.1428 20 14.5032 20 13.7143V2.28569C20 1.49671 19.3604 0.857117 18.5714 0.857117Z" fill="white"/>
</mask>
<g mask="url(#mask0_2616_247)">
<path d="M18.5714 0.857117H1.42857C0.639593 0.857117 0 1.49671 0 2.28569V13.7143C0 14.5032 0.639593 15.1428 1.42857 15.1428H18.5714C19.3604 15.1428 20 14.5032 20 13.7143V2.28569C20 1.49671 19.3604 0.857117 18.5714 0.857117Z" fill="white"/>
<mask id="mask1_2616_247" style="mask-type:alpha" maskUnits="userSpaceOnUse" x="0" y="0" width="20" height="16">
<path d="M18.5714 0.857117H1.42857C0.639593 0.857117 0 1.49671 0 2.28569V13.7143C0 14.5032 0.639593 15.1428 1.42857 15.1428H18.5714C19.3604 15.1428 20 14.5032 20 13.7143V2.28569C20 1.49671 19.3604 0.857117 18.5714 0.857117Z" fill="white"/>
</mask>
<g mask="url(#mask1_2616_247)">
<path fill-rule="evenodd" clip-rule="evenodd" d="M20 0.857117H9.52379V1.8095H20V0.857117ZM20 2.76188H9.52379V3.71426H20V2.76188ZM9.52379 4.66664H20V5.61902H9.52379V4.66664ZM20 6.5714H9.52379V7.52378H20V6.5714ZM0 8.47619H20V9.42854H0V8.47619ZM20 10.3809H0V11.3333H20V10.3809ZM0 12.2857H20V13.238H0V12.2857ZM20 14.1905H0V15.1428H20V14.1905Z" fill="#E1244A"/>
<path d="M11.4286 0.857117H0V8.47619H11.4286V0.857117Z" fill="#0C3F8E"/>
<path fill-rule="evenodd" clip-rule="evenodd" d="M4.76193 7.52379C5.43701 7.52379 6.0574 7.28967 6.54634 6.89819C6.28733 6.99479 6.00699 7.04761 5.71431 7.04761C4.39934 7.04761 3.33336 5.98162 3.33336 4.66665C3.33336 3.35169 4.39934 2.2857 5.71431 2.2857C6.00699 2.2857 6.28733 2.33851 6.54634 2.43512C6.0574 2.04364 5.43701 1.80951 4.76193 1.80951C3.18397 1.80951 1.90479 3.08869 1.90479 4.66665C1.90479 6.24461 3.18397 7.52379 4.76193 7.52379ZM6.79262 6.38279L7.6191 5.44761L8.44553 6.38279L8.22967 5.15357L9.4761 5.0905L8.38046 4.49287L9.10824 3.47905L7.95788 3.96304L7.6191 2.7619L7.28024 3.96304L6.12986 3.47905L6.8577 4.49287L5.76206 5.0905L7.00849 5.15357L6.79262 6.38279Z" fill="#FFD34F"/>
</g>
</g>
</svg>
