<svg width="188" height="56" viewBox="0 0 188 56" fill="none" xmlns="http://www.w3.org/2000/svg">
<path d="M101.075 40.2316H87.4648V15.7723H101.075V40.2316Z" fill="#C3C0C0"/>
<path d="M88.3367 28C88.3367 23.0383 90.6598 18.6186 94.2775 15.7704C91.632 13.6876 88.2932 12.4444 84.6647 12.4444C76.0745 12.4444 69.1111 19.4088 69.1111 28C69.1111 36.5912 76.0745 43.5556 84.6647 43.5556C88.2932 43.5556 91.632 42.3124 94.2775 40.2296C90.6598 37.3814 88.3367 32.9617 88.3367 28Z" fill="#414349"/>
<path d="M119.43 28C119.43 36.5912 112.467 43.5556 103.877 43.5556C100.248 43.5556 96.9092 42.3124 94.2627 40.2296C97.8813 37.3814 100.204 32.9617 100.204 28C100.204 23.0383 97.8813 18.6186 94.2627 15.7704C96.9092 13.6876 100.248 12.4444 103.877 12.4444C112.467 12.4444 119.43 19.4088 119.43 28Z" fill="#6B6D75"/>
<path d="M24.0406 36.6415H19.6149L22.3831 20.7753H26.8086L24.0406 36.6415Z" fill="#666870"/>
<path d="M40.0841 21.1633C39.2112 20.8423 37.8266 20.4879 36.1146 20.4879C31.744 20.4879 28.6662 22.6482 28.6474 25.737C28.6111 28.0158 30.8509 29.2815 32.5262 30.0414C34.2384 30.8178 34.8205 31.3246 34.8205 32.0167C34.8031 33.0796 33.4369 33.5696 32.1627 33.5696C30.3957 33.5696 29.4489 33.317 28.0101 32.7256L27.4274 32.4721L26.808 36.0337C27.8461 36.4721 29.7585 36.8611 31.744 36.8781C36.3878 36.8781 39.4111 34.7512 39.4469 31.4597C39.4646 29.6535 38.2818 28.2695 35.7319 27.1386C34.184 26.4127 33.236 25.9232 33.236 25.1804C33.2542 24.5051 34.0378 23.8135 35.7852 23.8135C37.224 23.7796 38.2811 24.1002 39.0819 24.421L39.4822 24.5895L40.0841 21.1633Z" fill="#666870"/>
<path d="M45.9663 31.0207C46.3308 30.1092 47.7333 26.5814 47.7333 26.5814C47.7149 26.6153 48.097 25.6531 48.3156 25.0624L48.6249 26.4296C48.6249 26.4296 49.463 30.2274 49.645 31.0207C48.9533 31.0207 46.8405 31.0207 45.9663 31.0207ZM51.4293 20.7753H48.006C46.9503 20.7753 46.1483 21.062 45.6928 22.0917L39.1189 36.6413H43.7627C43.7627 36.6413 44.5273 34.683 44.6916 34.2613C45.201 34.2613 49.7185 34.2613 50.3739 34.2613C50.501 34.8183 50.902 36.6413 50.902 36.6413H54.9998L51.4293 20.7753Z" fill="#666870"/>
<path d="M15.9184 20.7753L11.5841 31.5946L11.1105 29.4003C10.3091 26.8684 7.79604 24.1175 4.99155 22.7497L8.96159 36.6247H13.6417L20.5982 20.7753H15.9184Z" fill="#666870"/>
<path d="M7.55919 20.7753H0.438569L0.365723 21.0959C5.92025 22.4125 9.5989 25.5863 11.1103 29.401L9.56236 22.109C9.30751 21.0957 8.52435 20.8087 7.55919 20.7753Z" fill="#C3C0C0"/>
<g clip-path="url(#clip0_15_451)">
<path d="M147.091 20.0035V20.0105C147.084 20.0105 144.902 20.0035 144.321 22.1062C143.788 24.0343 142.285 29.3553 142.244 29.502H141.828C141.828 29.502 140.291 24.0623 139.751 22.0993C139.169 19.9965 136.981 20.0035 136.981 20.0035H132V35.9965H136.983V26.498H137.399L140.307 35.9964H143.767L146.675 26.505H147.091V35.9964H152.074V20.0035H147.091ZM165.295 20.0035C165.295 20.0035 163.834 20.1362 163.148 21.6802L159.619 29.502H159.204V20.0035H154.22V35.9965H158.927C158.927 35.9965 160.457 35.8568 161.143 34.3199L164.602 26.498H165.018V35.9965H170.001V20.0035H165.295ZM172.217 27.2665V35.9965H177.2V30.8991H182.599C184.953 30.8991 186.945 29.3832 187.686 27.2688H172.217V27.2665Z" fill="#666870"/>
<path d="M182.601 20.0035H171.518C172.072 23.0493 174.336 25.4921 177.262 26.2885C177.942 26.4741 178.643 26.5681 179.347 26.568H187.889C187.965 26.2047 188 25.8345 188 25.4502C188 22.4416 185.583 20.0035 182.601 20.0035Z" fill="#C3C0C0"/>
</g>
<defs>
<clipPath id="clip0_15_451">
<rect width="56" height="16" fill="white" transform="translate(132 20)"/>
</clipPath>
</defs>
</svg>
