<svg xmlns="http://www.w3.org/2000/svg">

<symbol id='favorites' viewBox="0 0 40 40">
    <path d="M20 30C19.6868 30 19.3848 29.8841 19.1495 29.6734C18.2608 28.8794 17.4039 28.1331 16.6479 27.4749L16.6441 27.4714C14.4277 25.5415 12.5137 23.8747 11.182 22.2329C9.69337 20.3974 9 18.6571 9 16.7559C9 14.9088 9.61986 13.2046 10.7453 11.9573C11.8841 10.6951 13.4468 10 15.1459 10C16.4158 10 17.5788 10.4102 18.6025 11.2193C19.1191 11.6276 19.5874 12.1274 20 12.7104C20.4127 12.1274 20.8809 11.6276 21.3977 11.2193C22.4214 10.4102 23.5844 10 24.8543 10C26.5532 10 28.1161 10.6951 29.2549 11.9573C30.3803 13.2046 31 14.9088 31 16.7559C31 18.6571 30.3068 20.3974 28.8182 22.2327C27.4865 23.8747 25.5727 25.5413 23.3566 27.4711C22.5993 28.1304 21.7411 28.8778 20.8503 29.6738C20.6152 29.8841 20.313 30 20 30ZM15.1459 11.3168C13.811 11.3168 12.5847 11.8612 11.6926 12.8498C10.7872 13.8533 10.2886 15.2405 10.2886 16.7559C10.2886 18.3549 10.8701 19.7849 12.1741 21.3927C13.4343 22.9464 15.3084 24.5785 17.4785 26.4682L17.4798 26.4693L17.4838 26.4727C18.2426 27.1336 19.1029 27.8827 19.9982 28.6826C20.8988 27.8812 21.7604 27.1308 22.5207 26.469C22.5227 26.4673 22.5246 26.4656 22.5266 26.4638C24.6945 24.5758 26.5668 22.9453 27.826 21.3927C29.1299 19.7849 29.7114 18.3549 29.7114 16.7559C29.7114 15.2405 29.2128 13.8533 28.3074 12.8498C27.4155 11.8612 26.189 11.3168 24.8543 11.3168C23.8764 11.3168 22.9786 11.6345 22.1859 12.2608C21.4794 12.8193 20.9873 13.5252 20.6987 14.0191C20.5504 14.2731 20.2892 14.4248 20 14.4248C19.7108 14.4248 19.4496 14.2731 19.3013 14.0191C19.0129 13.5252 18.5208 12.8193 17.8141 12.2608C17.0214 11.6345 16.1236 11.3168 15.1459 11.3168Z" />
    <path d="M15.1459 11.3168C13.811 11.3168 12.5847 11.8612 11.6926 12.8498C10.7872 13.8533 10.2886 15.2405 10.2886 16.7559C10.2886 18.3549 10.8701 19.7849 12.1741 21.3927C13.4343 22.9464 15.3084 24.5785 17.4785 26.4682L17.4798 26.4693L17.4838 26.4727C18.2426 27.1336 19.1029 27.8827 19.9982 28.6826C20.8988 27.8812 21.7604 27.1308 22.5207 26.469L22.5266 26.4638C24.6945 24.5758 26.5668 22.9453 27.826 21.3927C29.1299 19.7849 29.7114 18.3549 29.7114 16.7559C29.7114 15.2405 29.2128 13.8533 28.3074 12.8498C27.4155 11.8612 26.189 11.3168 24.8543 11.3168C23.8764 11.3168 22.9786 11.6345 22.1859 12.2608C21.4794 12.8193 20.9873 13.5252 20.6987 14.0191C20.5504 14.2731 20.2892 14.4248 20 14.4248C19.7108 14.4248 19.4496 14.2731 19.3013 14.0191C19.0129 13.5252 18.5208 12.8193 17.8141 12.2608C17.0214 11.6345 16.1236 11.3168 15.1459 11.3168Z" />
</symbol>

<symbol id='location-icon' width="17" height="22" viewBox="0 0 17 22">
    <path
                d="M8.40247 0.850037C6.18857 0.850037 4.06536 1.7295 2.4999 3.29496C0.934442 4.86042 0.0549769 6.98363 0.0549769 9.19752C0.0481071 11.2748 0.822854 13.2788 2.22532 14.8112L8.00596 21.5362C8.05494 21.5934 8.11574 21.6394 8.18419 21.6709C8.25264 21.7025 8.32711 21.7188 8.40247 21.7188C8.47783 21.7188 8.55229 21.7025 8.62074 21.6709C8.68919 21.6394 8.74999 21.5934 8.79897 21.5362L14.5796 14.8112C15.9821 13.2788 16.7568 11.2748 16.75 9.19752C16.75 6.98363 15.8705 4.86042 14.305 3.29496C12.7396 1.7295 10.6164 0.850037 8.40247 0.850037ZM13.7866 14.133L8.40247 20.3988L3.01834 14.1382C2.06041 13.0932 1.42728 11.7921 1.19615 10.3934C0.96502 8.99482 1.14589 7.55916 1.71669 6.26156C2.28749 4.96396 3.22356 3.8605 4.41073 3.08577C5.59791 2.31105 6.98487 1.89852 8.40247 1.89852C9.82006 1.89852 11.207 2.31105 12.3942 3.08577C13.5814 3.8605 14.5174 4.96396 15.0882 6.26156C15.659 7.55916 15.8399 8.99482 15.6088 10.3934C15.3777 11.7921 14.7445 13.0932 13.7866 14.1382V14.133Z"
                fill="white" />
              <path
                d="M8.40252 5.54547C7.68021 5.54547 6.97413 5.75966 6.37356 6.16095C5.77299 6.56224 5.3049 7.13261 5.02848 7.79993C4.75207 8.46725 4.67975 9.20155 4.82066 9.90997C4.96158 10.6184 5.3094 11.2691 5.82014 11.7799C6.33089 12.2906 6.98162 12.6384 7.69004 12.7794C8.39846 12.9203 9.13276 12.8479 9.80009 12.5715C10.4674 12.2951 11.0378 11.827 11.4391 11.2265C11.8404 10.6259 12.0545 9.9198 12.0545 9.1975C12.0545 8.22892 11.6698 7.30001 10.9849 6.61512C10.3 5.93024 9.37109 5.54547 8.40252 5.54547ZM8.40252 11.8061C7.88659 11.8061 7.38224 11.6531 6.95326 11.3665C6.52428 11.0798 6.18993 10.6724 5.99249 10.1958C5.79506 9.7191 5.7434 9.1946 5.84405 8.68859C5.9447 8.18257 6.19315 7.71776 6.55796 7.35295C6.92278 6.98813 7.38759 6.73968 7.8936 6.63903C8.39962 6.53838 8.92412 6.59004 9.40078 6.78747C9.87744 6.98491 10.2848 7.31926 10.5715 7.74824C10.8581 8.17722 11.0111 8.68157 11.0111 9.1975C11.0111 9.88934 10.7363 10.5528 10.2471 11.042C9.75786 11.5313 9.09436 11.8061 8.40252 11.8061Z"
                fill="white" />
</symbol>

</svg>