<svg width="56" height="56" viewBox="0 0 56 56" fill="none" xmlns="http://www.w3.org/2000/svg">
<path d="M24.0406 36.6415H19.6149L22.3831 20.7753H26.8086L24.0406 36.6415Z" fill="#666870"/>
<path d="M40.0841 21.1633C39.2111 20.8423 37.8265 20.4879 36.1145 20.4879C31.7439 20.4879 28.6662 22.6482 28.6473 25.737C28.611 28.0158 30.8509 29.2815 32.5261 30.0414C34.2384 30.8178 34.8204 31.3246 34.8204 32.0167C34.803 33.0796 33.4368 33.5696 32.1626 33.5696C30.3956 33.5696 29.4489 33.317 28.0101 32.7256L27.4273 32.4721L26.808 36.0337C27.846 36.4721 29.7584 36.8611 31.7439 36.8781C36.3877 36.8781 39.411 34.7512 39.4468 31.4597C39.4645 29.6535 38.2818 28.2695 35.7319 27.1386C34.1839 26.4127 33.2359 25.9232 33.2359 25.1804C33.2541 24.5051 34.0377 23.8135 35.7851 23.8135C37.2239 23.7796 38.281 24.1002 39.0819 24.421L39.4822 24.5895L40.0841 21.1633Z" fill="#666870"/>
<path d="M45.9663 31.0207C46.3308 30.1092 47.7332 26.5814 47.7332 26.5814C47.7148 26.6153 48.097 25.6531 48.3155 25.0624L48.6248 26.4295C48.6248 26.4295 49.4629 30.2274 49.6449 31.0207C48.9532 31.0207 46.8404 31.0207 45.9663 31.0207ZM51.4293 20.7753H48.006C46.9503 20.7753 46.1483 21.062 45.6928 22.0917L39.1189 36.6413H43.7627C43.7627 36.6413 44.5272 34.683 44.6916 34.2613C45.201 34.2613 49.7185 34.2613 50.3739 34.2613C50.5009 34.8183 50.902 36.6413 50.902 36.6413H54.9998L51.4293 20.7753Z" fill="#666870"/>
<path d="M15.9184 20.7753L11.5841 31.5945L11.1105 29.4002C10.3092 26.8683 7.79607 24.1175 4.99158 22.7497L8.96162 36.6247H13.6417L20.5983 20.7753H15.9184Z" fill="#666870"/>
<path d="M7.55919 20.7753H0.438569L0.365723 21.0959C5.92025 22.4125 9.5989 25.5862 11.1103 29.4009L9.56236 22.109C9.30751 21.0956 8.52435 20.8087 7.55919 20.7753Z" fill="#C3C0C0"/>
</svg>
